<svg width="408" height="132" viewBox="0 0 408 132" fill="none" xmlns="http://www.w3.org/2000/svg">

<g clip-path="url(#clip0_739_3873)">

<path d="M85.2277 0H-0.214355V131.862H101.229V0H85.2277ZM5.30835 5.5227H19.1296L15.6998 8.95259L11.7903 12.8621L5.29381 19.3585V5.5227H5.30835ZM5.30835 32.5258V27.163L6.52915 25.9422L15.6998 16.7716L19.6092 12.8621L26.9486 5.5227H45.3043L41.8744 8.95259L37.965 12.8621L28.7944 22.0327L24.8849 25.9422L15.7143 35.1128L11.8048 39.0223L5.30835 45.5187V32.5403V32.5258ZM15.6998 42.9172L19.6092 39.0077L28.7798 29.8371L32.6893 25.9276L41.8599 16.757L45.7694 12.8475L53.1088 5.50817H71.4645L68.0346 8.93806L64.1251 12.8475L54.9545 22.0181L51.045 25.9276L41.8744 35.0982L37.965 39.0077L28.7944 48.1783L24.8849 52.0878L16.6735 60.2992C12.9384 59.8632 9.15971 59.6161 5.30835 59.587V53.3086L15.6998 42.9172ZM68.0201 42.9172L77.1907 52.0878L81.1002 55.9973L85.4457 60.3428C81.8704 60.7788 78.3679 61.3892 74.9235 62.174C73.3103 62.5373 71.7261 62.9443 70.142 63.3948L68.0201 61.2729L58.8495 52.1023L54.94 48.1928L45.7694 39.0223L54.94 29.8517L64.1106 39.0223L68.0201 42.9317V42.9172ZM95.7063 97.4321C92.0729 97.5484 88.5122 97.9408 85.0387 98.6384C81.8995 94.6562 78.4842 90.9211 74.7927 87.4622C77.8301 86.5175 80.9548 85.7908 84.1522 85.224C86.4194 84.8171 88.7302 84.5119 91.0556 84.3229C92.5961 84.1921 94.1367 84.1049 95.7063 84.0759V97.4466V97.4321ZM51.3357 70.7633L45.7549 65.1824L41.8454 61.2729L32.6748 52.1023L41.8454 42.9317L51.016 52.1023L54.9255 56.0118L64.0961 65.1824L63.9217 65.3568C59.5762 66.8828 55.376 68.6995 51.3212 70.7633H51.3357ZM37.9214 65.1534C33.2416 63.5401 28.402 62.2612 23.4461 61.3456L28.7798 56.0118L37.9214 65.1534ZM43.9382 126.339H5.30835V102.911C8.17144 102.94 10.9909 103.158 13.7377 103.58C15.7433 103.885 17.7054 104.306 19.6383 104.801C24.1873 105.992 28.5182 107.707 32.5731 109.887C34.2153 110.774 35.7995 111.718 37.34 112.75C41.0606 115.236 44.4905 118.128 47.557 121.369C48.8505 122.735 50.0713 124.159 51.2194 125.627C51.045 125.859 50.8561 126.077 50.6817 126.31H43.9237L43.9382 126.339ZM58.5298 126.339C57.3961 124.639 56.1899 122.982 54.8964 121.398C53.7337 119.959 52.5129 118.578 51.234 117.241C48.1384 114.015 44.723 111.108 41.0315 108.579C39.4764 107.518 37.8778 106.53 36.2355 105.614C32.1807 103.333 27.8497 101.472 23.3007 100.106C21.3823 99.5249 19.4203 99.0308 17.4147 98.6238C13.4907 97.839 9.43584 97.4176 5.29381 97.374V84.0032C9.61024 84.0323 13.8395 84.4247 17.967 85.1368C20.147 85.5147 22.2979 85.9652 24.4053 86.5175C25.4953 86.8082 26.5853 87.1134 27.6462 87.4476C29.6373 88.058 31.5993 88.7702 33.5177 89.5404C34.9856 90.1218 36.4244 90.7467 37.8487 91.4153C39.5927 92.2437 41.3076 93.1447 42.979 94.0894C44.1417 94.7579 45.3043 95.441 46.4234 96.1677C48.0512 97.1996 49.6498 98.2896 51.2049 99.4377C54.8673 102.17 58.2827 105.237 61.4074 108.579C62.6863 109.931 63.9071 111.326 65.0843 112.765C68.4997 116.95 71.4645 121.499 73.9643 126.339H58.5007H58.5298ZM80.1555 126.339C77.3651 120.453 73.9061 114.945 69.8804 109.902C68.7032 108.434 67.4969 106.995 66.2325 105.614C63.0933 102.185 59.6634 99.0453 56.0009 96.1677C54.4459 94.9469 52.8617 93.7697 51.2194 92.6797C49.8533 91.7641 48.4581 90.892 47.0338 90.0491C45.3915 89.0754 43.6911 88.1598 41.9762 87.2878C40.7699 86.6774 39.5491 86.1106 38.3138 85.5583C36.3808 84.7008 34.4043 83.916 32.3987 83.2039C31.236 82.7969 30.0588 82.4045 28.867 82.0412C26.8324 81.4308 24.7686 80.8931 22.6613 80.428C17.0514 79.1926 11.238 78.5096 5.27928 78.4805V65.1098C7.38663 65.1098 9.47944 65.226 11.5723 65.3714C13.9557 65.5458 16.3102 65.7783 18.6355 66.1126C23.7658 66.8538 28.7653 67.9874 33.5904 69.4988C35.5524 70.1093 37.4708 70.8069 39.3602 71.5335C41.3803 72.3038 43.3569 73.1467 45.3043 74.0478C46.3071 74.5129 47.2809 74.9925 48.2692 75.4866C49.2574 75.9808 50.2457 76.4894 51.2049 77.0272C51.4229 77.1434 51.6409 77.2742 51.8444 77.405C53.5012 78.3352 55.1289 79.3089 56.7276 80.3408C59.271 81.9685 61.7271 83.7125 64.1106 85.5583C65.7529 86.8372 67.3516 88.1598 68.8921 89.5404C72.5691 92.7959 75.9844 96.3275 79.1236 100.106C79.2108 100.208 79.3126 100.31 79.3998 100.426C80.577 101.85 81.696 103.318 82.786 104.815C87.6111 111.413 91.6224 118.636 94.6744 126.339H80.1264H80.1555ZM88.7157 103.58C90.9974 103.231 93.3373 103.027 95.6917 102.94V115.177C93.6134 111.152 91.2881 107.271 88.7157 103.58ZM95.7063 78.5386C92.4508 78.6113 89.2244 78.8729 86.0706 79.3234C83.8325 79.6432 81.6379 80.0501 79.4724 80.5297C76.2605 81.2564 73.1213 82.1575 70.0548 83.2329C67.0899 80.7768 63.9798 78.4805 60.7534 76.3586C59.5616 75.5738 58.3554 74.8035 57.1345 74.0769C60.3174 72.5945 63.5874 71.301 66.9446 70.1674C67.4823 69.993 68.0201 69.7895 68.5578 69.6151C70.5634 68.9756 72.5981 68.4234 74.6619 67.9147C79.7922 66.6503 85.0969 65.8074 90.5033 65.415C92.2182 65.2842 93.9622 65.2115 95.6917 65.1679V78.5386H95.7063ZM95.7063 59.6452C94.6744 59.6597 93.6425 59.6743 92.6252 59.7179L85.0097 52.1023L81.1002 48.1928L71.9296 39.0223L68.0201 35.1128L58.8495 25.9422L68.0201 16.7716L77.1907 25.9422L81.1002 29.8517L90.2708 39.0223L94.1803 42.9317L95.7063 44.4578V59.6452ZM95.7063 33.5868V36.6242L94.1803 35.0982L85.0097 25.9276L81.1002 22.0181L71.9296 12.8475L79.269 5.50817H82.9459L90.2853 12.8475L94.1948 16.757L95.7208 18.2831V33.5868H95.7063ZM95.7063 10.4786L94.1803 8.95259L90.7504 5.5227H95.7063V10.4786Z" fill="#4A5B42"/>

<path d="M165.346 70.3636C164.765 70.2473 164.256 70.0148 163.806 69.666C163.37 69.3172 162.89 68.8376 162.381 68.2417L146.409 46.18L159.184 31.8209C159.693 31.1669 160.201 30.6873 160.724 30.3531C161.233 30.0333 161.8 29.8008 162.396 29.6845C163.006 29.5683 163.718 29.5101 164.561 29.5101H165.811V25.2518H147.95V29.5101H148.647C149.432 29.5101 150.246 29.5392 151.06 29.5828C151.874 29.6264 152.542 29.6845 153.08 29.7572C153.618 29.8299 153.879 29.9607 153.879 30.1351L136.861 49.3919V51.0632L150.667 69.8259C150.667 69.9712 150.435 70.0874 149.97 70.2037C149.505 70.32 148.923 70.4072 148.226 70.4508C147.528 70.4944 146.83 70.5235 146.133 70.5235H145.508V74.7818H168.18V70.5235H167.41C166.625 70.5235 165.927 70.4653 165.346 70.3491V70.3636Z" fill="#A59973"/>

<path d="M137.907 70.509C137.355 70.48 136.832 70.4364 136.367 70.3637C135.902 70.291 135.524 70.2184 135.248 70.1602C134.971 70.0876 134.826 69.9858 134.826 69.8405V30.2224C134.826 30.077 134.986 29.9753 135.32 29.9026C135.64 29.83 136.061 29.7573 136.57 29.6992C137.079 29.6265 137.66 29.5829 138.314 29.5538C138.968 29.5248 139.593 29.5248 140.203 29.5248H140.828V25.2665H118.229V29.5248H118.927C120.322 29.5248 121.47 29.6846 122.386 30.0189C123.287 30.3387 123.752 31.0217 123.752 32.0391V68.0384C123.752 69.0557 123.301 69.7388 122.386 70.0585C121.47 70.3782 120.322 70.5526 118.927 70.5526H118.229V74.8109H140.131V70.5526H139.506C138.997 70.5526 138.459 70.5526 137.907 70.5236V70.509Z" fill="#A59973"/>

<path d="M225.166 70.1892C224.512 69.9567 224.032 69.4189 223.698 68.5905L209.121 25.2664H197.887L183.789 67.5441C183.368 68.794 182.845 69.6078 182.22 69.9857C181.595 70.3636 180.737 70.538 179.676 70.538H179.328V74.7963H194.529V70.538H193.556C192.815 70.538 192.073 70.4944 191.318 70.3927C190.576 70.3055 189.951 70.1456 189.472 69.9421C188.978 69.7387 188.745 69.5061 188.745 69.2736L192.349 58.4607H208.99L212.754 69.8258C212.754 69.9712 212.493 70.0874 211.984 70.2037C211.475 70.32 210.836 70.4072 210.066 70.4508C209.295 70.4944 208.54 70.5234 207.798 70.5234H206.679V74.7818H228.029V70.5234H227.68C226.663 70.5234 225.82 70.4072 225.166 70.1746V70.1892ZM193.977 53.592L200.706 33.376L207.392 53.592H193.992H193.977Z" fill="#A59973"/>

<path d="M272.051 29.5247H272.952C273.795 29.5247 274.609 29.5828 275.423 29.6991C276.237 29.8153 276.905 29.9461 277.443 30.0769C277.981 30.2223 278.242 30.3821 278.242 30.5711V62.8353L259.262 25.2809H239.452V29.5392H240.15C241.08 29.5392 241.909 29.6119 242.621 29.7427C243.347 29.888 243.914 30.1205 244.336 30.4693C244.757 30.8181 244.961 31.3413 244.961 32.0389V67.6894C244.961 68.3434 244.757 68.8957 244.336 69.3317C243.914 69.7677 243.347 70.0875 242.621 70.2764C241.894 70.4653 241.08 70.5525 240.15 70.5525H239.452V74.8108H256.616V70.5525H255.715C254.872 70.5525 254.059 70.4944 253.245 70.3781C252.431 70.2619 251.762 70.1165 251.225 69.9567C250.687 69.7968 250.425 69.6369 250.425 69.5061V30.9344L272.821 74.7963H283.707V32.2424C283.707 31.5448 283.91 30.9925 284.332 30.6001C284.753 30.2077 285.32 29.9316 286.047 29.7572C286.773 29.5973 287.573 29.5101 288.459 29.5101H289.229V25.2518H272.065V29.5101L272.051 29.5247Z" fill="#A59973"/>

<path d="M345.502 70.1892C344.848 69.9567 344.369 69.4189 344.035 68.5905L329.458 25.2664H318.223L304.126 67.5441C303.704 68.794 303.181 69.6078 302.556 69.9857C301.931 70.3636 301.074 70.538 300.013 70.538H299.664V74.7963H314.866V70.538H313.892C313.151 70.538 312.41 70.4944 311.654 70.3927C310.913 70.3055 310.288 70.1456 309.808 69.9421C309.314 69.7387 309.082 69.5061 309.082 69.2736L312.686 58.4607H329.327L333.091 69.8258C333.091 69.9712 332.829 70.0874 332.321 70.2037C331.812 70.32 331.172 70.4072 330.402 70.4508C329.632 70.4944 328.876 70.5234 328.135 70.5234H327.016V74.7818H348.366V70.5234H348.017C346.999 70.5234 346.156 70.4072 345.502 70.1746V70.1892ZM314.314 53.592L321.043 33.376L327.728 53.592H314.328H314.314Z" fill="#A59973"/>

<path d="M407.866 70.538C406.848 70.538 406.005 70.4217 405.351 70.1892C404.697 69.9567 404.218 69.4189 403.883 68.5905L389.306 25.2664H378.072L363.975 67.5441C363.553 68.794 363.03 69.6078 362.405 69.9857C361.78 70.3636 360.923 70.538 359.862 70.538H359.513V74.7963H374.715V70.538H373.741C373 70.538 372.259 70.4944 371.503 70.3927C370.762 70.3055 370.137 70.1456 369.657 69.9421C369.163 69.7387 368.931 69.5061 368.931 69.2736L372.535 58.4607H389.176L392.94 69.8258C392.94 69.9712 392.678 70.0874 392.169 70.2037C391.661 70.32 391.021 70.4072 390.251 70.4508C389.481 70.4944 388.725 70.5234 387.984 70.5234H386.865V74.7818H408.214V70.5234H407.866V70.538ZM374.163 53.592L380.892 33.376L387.577 53.592H374.177H374.163Z" fill="#A59973"/>

<path d="M120.394 104.401C118.941 102.933 118.229 101.131 118.229 98.9799C118.229 96.829 118.941 95.0414 120.394 93.5589C121.848 92.0911 123.694 91.3499 125.917 91.3499C128.606 91.3499 130.989 92.7305 132.254 94.9105L130.553 95.8988C129.71 94.2856 127.923 93.2392 125.917 93.2392C124.217 93.2392 122.836 93.7915 121.761 94.8815C120.685 95.9715 120.162 97.3376 120.162 98.9799C120.162 100.622 120.685 101.959 121.761 103.049C122.836 104.139 124.217 104.692 125.917 104.692C127.937 104.692 129.71 103.645 130.553 102.046L132.254 103.006C131.643 104.096 130.757 104.982 129.623 105.636C128.49 106.29 127.254 106.595 125.903 106.595C123.679 106.595 121.833 105.869 120.38 104.386L120.394 104.401Z" fill="#4A5B42"/>

<path d="M140.203 106.595C138.677 106.595 137.355 106.072 136.279 104.997C135.204 103.921 134.68 102.628 134.68 101.073C134.68 99.5177 135.204 98.2242 136.279 97.1487C137.355 96.0733 138.677 95.55 140.203 95.55C141.729 95.55 143.052 96.0733 144.127 97.1487C145.203 98.2242 145.74 99.5177 145.74 101.073C145.74 102.628 145.188 103.921 144.127 104.997C143.052 106.072 141.729 106.595 140.203 106.595ZM142.848 103.747C143.56 103.035 143.924 102.148 143.924 101.087C143.924 100.026 143.56 99.1398 142.848 98.4277C142.136 97.7155 141.25 97.3522 140.203 97.3522C139.157 97.3522 138.299 97.7155 137.587 98.4277C136.875 99.1398 136.512 100.026 136.512 101.087C136.512 102.148 136.875 103.035 137.587 103.747C138.299 104.459 139.186 104.822 140.203 104.822C141.221 104.822 142.136 104.459 142.848 103.747Z" fill="#4A5B42"/>

<path d="M164.227 99.8082V106.334H162.396V99.8664C162.396 98.2531 161.495 97.3085 160.085 97.3085C158.516 97.3085 157.498 98.3403 157.498 100.491V106.319H155.667V99.8518C155.667 98.2386 154.81 97.2939 153.444 97.2939C151.918 97.2939 150.755 98.3694 150.755 100.477V106.305H148.924V95.8115H150.755V97.2213C151.467 96.1022 152.513 95.5354 153.88 95.5354C155.246 95.5354 156.307 96.1167 156.961 97.323C157.702 96.1313 158.792 95.5354 160.26 95.5354C162.614 95.5354 164.198 97.1777 164.198 99.7792L164.227 99.8082Z" fill="#4A5B42"/>

<path d="M173.209 93.1375C171.363 92.9922 170.433 93.7915 170.433 95.5355V95.8553H173.209V97.6138H170.433V106.348H168.601V97.6138H166.93V95.8553H168.601V95.5355C168.601 92.7015 170.244 91.19 173.194 91.379V93.1375H173.209Z" fill="#4A5B42"/>

<path d="M180.01 106.595C178.484 106.595 177.162 106.072 176.086 104.997C175.011 103.921 174.488 102.628 174.488 101.073C174.488 99.5177 175.011 98.2242 176.086 97.1487C177.162 96.0733 178.484 95.55 180.01 95.55C181.537 95.55 182.859 96.0733 183.935 97.1487C185.01 98.2242 185.548 99.5177 185.548 101.073C185.548 102.628 184.995 103.921 183.935 104.997C182.859 106.072 181.537 106.595 180.01 106.595ZM182.656 103.747C183.368 103.035 183.731 102.148 183.731 101.087C183.731 100.026 183.368 99.1398 182.656 98.4277C181.943 97.7155 181.057 97.3522 180.01 97.3522C178.964 97.3522 178.107 97.7155 177.394 98.4277C176.682 99.1398 176.319 100.026 176.319 101.087C176.319 102.148 176.682 103.035 177.394 103.747C178.107 104.459 178.993 104.822 180.01 104.822C181.028 104.822 181.943 104.459 182.656 103.747Z" fill="#4A5B42"/>

<path d="M190.591 97.5991C191.201 96.2911 192.291 95.6516 193.861 95.6516V97.5555C192.96 97.5119 192.204 97.7444 191.55 98.2676C190.896 98.7908 190.591 99.6047 190.591 100.767V106.334H188.759V95.8405H190.591V97.5991Z" fill="#4A5B42"/>

<path d="M202.654 97.5993H199.863V103.282C199.863 104.895 200.793 104.779 202.654 104.692V106.334C199.471 106.755 198.032 105.898 198.032 103.296V97.6138H195.954V95.8553H198.032V93.4573L199.863 92.905V95.8408H202.654V97.5993Z" fill="#4A5B42"/>

<path d="M212.013 99.0091C212.013 98.2534 212.623 97.6429 213.379 97.6429C214.135 97.6429 214.745 98.2534 214.745 99.0091C214.745 99.7648 214.164 100.375 213.379 100.375C212.594 100.375 212.013 99.7648 212.013 99.0091Z" fill="#4A5B42"/>

<path d="M226.241 104.401C224.788 102.933 224.076 101.131 224.076 98.9799C224.076 96.829 224.788 95.0414 226.241 93.5589C227.695 92.0911 229.541 91.3499 231.764 91.3499C234.453 91.3499 236.836 92.7305 238.101 94.9105L236.4 95.8988C235.557 94.2856 233.77 93.2392 231.764 93.2392C230.064 93.2392 228.683 93.7915 227.608 94.8815C226.532 95.9715 226.009 97.3376 226.009 98.9799C226.009 100.622 226.532 101.959 227.608 103.049C228.683 104.139 230.064 104.692 231.764 104.692C233.784 104.692 235.557 103.645 236.4 102.046L238.101 103.006C237.49 104.096 236.604 104.982 235.47 105.636C234.337 106.29 233.101 106.595 231.75 106.595C229.526 106.595 227.68 105.869 226.227 104.386L226.241 104.401Z" fill="#4A5B42"/>

<path d="M249.8 95.8407H251.631V106.334H249.8V104.532C248.899 105.912 247.576 106.61 245.832 106.61C244.364 106.61 243.1 106.087 242.083 105.011C241.051 103.936 240.528 102.613 240.528 101.087C240.528 99.5613 241.051 98.2533 242.083 97.1778C243.115 96.1023 244.364 95.5646 245.832 95.5646C247.576 95.5646 248.899 96.2622 249.8 97.6429V95.8407ZM248.739 103.776C249.451 103.049 249.814 102.163 249.814 101.087C249.814 100.012 249.451 99.1398 248.739 98.4277C248.027 97.6865 247.14 97.3377 246.079 97.3377C245.018 97.3377 244.146 97.701 243.434 98.4277C242.722 99.1398 242.359 100.026 242.359 101.087C242.359 102.148 242.722 103.035 243.434 103.776C244.146 104.488 245.033 104.851 246.079 104.851C247.126 104.851 248.027 104.488 248.739 103.776Z" fill="#4A5B42"/>

<path d="M255.453 106.334V91.0156H257.285V106.334H255.453Z" fill="#4A5B42"/>

<path d="M276.396 99.8082V106.334H274.565V99.8664C274.565 98.2531 273.664 97.3085 272.254 97.3085C270.684 97.3085 269.667 98.3403 269.667 100.491V106.319H267.836V99.8518C267.836 98.2386 266.978 97.2939 265.612 97.2939C264.086 97.2939 262.923 98.3694 262.923 100.477V106.305H261.092V95.8115H262.923V97.2213C263.636 96.1022 264.682 95.5354 266.048 95.5354C267.414 95.5354 268.475 96.1167 269.129 97.323C269.87 96.1313 270.96 95.5354 272.428 95.5354C274.783 95.5354 276.367 97.1777 276.367 99.7792L276.396 99.8082Z" fill="#4A5B42"/>

<path d="M289.273 99.881V106.319H287.442V99.9827C287.442 98.2823 286.453 97.2941 284.84 97.2941C283.009 97.2941 281.803 98.4131 281.803 100.753V106.319H279.971V95.8262H281.803V97.3377C282.544 96.1459 283.678 95.55 285.204 95.55C287.66 95.55 289.273 97.2069 289.273 99.8665V99.881Z" fill="#4A5B42"/>

<path d="M294.142 101.916C294.505 103.79 295.944 104.88 297.935 104.88C299.315 104.88 300.333 104.372 300.958 103.354L302.513 104.241C301.481 105.811 299.955 106.61 297.891 106.61C296.234 106.61 294.868 106.087 293.822 105.055C292.79 104.008 292.267 102.686 292.267 101.087C292.267 99.4886 292.775 98.1951 293.793 97.1487C294.81 96.1023 296.147 95.5791 297.76 95.5791C299.286 95.5791 300.551 96.1314 301.51 97.2214C302.498 98.2968 302.978 99.5903 302.978 101.131C302.978 101.407 302.963 101.683 302.92 101.945H294.127L294.142 101.916ZM294.142 100.332H301.147C300.827 98.3404 299.446 97.294 297.775 97.294C295.827 97.294 294.461 98.4858 294.142 100.332Z" fill="#4A5B42"/>

<path d="M309.373 100.244C311.015 100.608 313.195 101.204 313.166 103.456C313.166 104.401 312.788 105.171 312.047 105.738C311.306 106.305 310.39 106.595 309.242 106.595C307.207 106.595 305.681 105.636 305.071 104.139L306.64 103.238C306.975 104.241 307.963 104.881 309.242 104.881C310.434 104.881 311.32 104.445 311.32 103.456C311.32 102.642 310.39 102.177 309.242 101.901C307.585 101.465 305.449 100.913 305.449 98.6893C305.449 97.7882 305.812 97.0325 306.495 96.4511C307.207 95.8698 308.094 95.5646 309.155 95.5646C310.855 95.5646 312.265 96.3784 312.933 97.7446L311.407 98.6021C311.029 97.701 310.274 97.265 309.155 97.265C308.123 97.265 307.28 97.7737 307.28 98.6747C307.28 99.4886 308.21 99.9391 309.358 100.244H309.373Z" fill="#4A5B42"/>

<path d="M319.386 100.244C321.029 100.608 323.209 101.204 323.18 103.456C323.18 104.401 322.802 105.171 322.061 105.738C321.319 106.305 320.404 106.595 319.256 106.595C317.221 106.595 315.695 105.636 315.084 104.139L316.654 103.238C316.988 104.241 317.977 104.881 319.256 104.881C320.447 104.881 321.334 104.445 321.334 103.456C321.334 102.642 320.404 102.177 319.256 101.901C317.599 101.465 315.462 100.913 315.462 98.6893C315.462 97.7882 315.826 97.0325 316.509 96.4511C317.221 95.8698 318.107 95.5646 319.168 95.5646C320.869 95.5646 322.279 96.3784 322.947 97.7446L321.421 98.6021C321.043 97.701 320.287 97.265 319.168 97.265C318.136 97.265 317.294 97.7737 317.294 98.6747C317.294 99.4886 318.224 99.9391 319.372 100.244H319.386Z" fill="#4A5B42"/>

<path d="M332.481 99.0091C332.481 98.2534 333.091 97.6429 333.847 97.6429C334.602 97.6429 335.213 98.2534 335.213 99.0091C335.213 99.7648 334.632 100.375 333.847 100.375C333.062 100.375 332.481 99.7648 332.481 99.0091Z" fill="#4A5B42"/>

<path d="M350.662 91.6404C352.028 91.6404 353.132 92.1055 354.033 93.0065C354.934 93.9076 355.4 95.0267 355.4 96.3637C355.4 97.7008 354.934 98.8199 354.033 99.721C353.132 100.622 352.013 101.087 350.662 101.087H347.275V106.334H345.328V91.6404H350.662ZM350.662 99.2559C351.476 99.2559 352.159 98.9798 352.682 98.442C353.205 97.8752 353.481 97.1776 353.481 96.3637C353.481 94.6924 352.289 93.4716 350.676 93.4716H347.29V99.2704H350.676L350.662 99.2559Z" fill="#4A5B42"/>

<path d="M359.048 101.916C359.411 103.79 360.85 104.88 362.841 104.88C364.222 104.88 365.239 104.372 365.864 103.354L367.419 104.241C366.387 105.811 364.861 106.61 362.798 106.61C361.141 106.61 359.775 106.087 358.728 105.055C357.696 104.008 357.173 102.686 357.173 101.087C357.173 99.4886 357.682 98.1951 358.699 97.1487C359.717 96.1023 361.054 95.5791 362.667 95.5791C364.193 95.5791 365.457 96.1314 366.416 97.2214C367.405 98.2968 367.884 99.5903 367.884 101.131C367.884 101.407 367.87 101.683 367.826 101.945H359.033L359.048 101.916ZM359.048 100.332H366.053C365.733 98.3404 364.353 97.294 362.681 97.294C360.734 97.294 359.368 98.4858 359.048 100.332Z" fill="#4A5B42"/>

<path d="M379.714 95.8407H381.546V106.334H379.714V104.532C378.813 105.912 377.491 106.61 375.747 106.61C374.279 106.61 373.015 106.087 371.997 105.011C370.965 103.936 370.442 102.613 370.442 101.087C370.442 99.5613 370.965 98.2533 371.997 97.1778C373.029 96.1023 374.279 95.5646 375.747 95.5646C377.491 95.5646 378.813 96.2622 379.714 97.6429V95.8407ZM378.653 103.776C379.366 103.049 379.729 102.163 379.729 101.087C379.729 100.012 379.366 99.1398 378.653 98.4277C377.941 97.6865 377.055 97.3377 375.994 97.3377C374.933 97.3377 374.061 97.701 373.349 98.4277C372.637 99.1398 372.273 100.026 372.273 101.087C372.273 102.148 372.637 103.035 373.349 103.776C374.061 104.488 374.947 104.851 375.994 104.851C377.04 104.851 377.941 104.488 378.653 103.776Z" fill="#4A5B42"/>

<path d="M386.356 105.026C385.31 103.95 384.787 102.657 384.787 101.087C384.787 99.5177 385.31 98.2097 386.356 97.1633C387.403 96.0878 388.725 95.5646 390.295 95.5646C392.373 95.5646 394.117 96.64 394.931 98.3114L393.405 99.1979C392.882 98.0789 391.705 97.3522 390.295 97.3522C389.248 97.3522 388.362 97.7155 387.65 98.4277C386.952 99.1398 386.603 100.026 386.603 101.087C386.603 102.148 386.967 103.02 387.65 103.732C388.362 104.445 389.248 104.808 390.295 104.808C391.705 104.808 392.882 104.096 393.463 102.977L395.018 103.878C394.117 105.535 392.33 106.61 390.295 106.61C388.725 106.61 387.403 106.087 386.356 105.04V105.026Z" fill="#4A5B42"/>

<path d="M399 101.916C399.363 103.79 400.802 104.88 402.793 104.88C404.174 104.88 405.191 104.372 405.816 103.354L407.371 104.241C406.339 105.811 404.813 106.61 402.75 106.61C401.093 106.61 399.727 106.087 398.68 105.055C397.648 104.008 397.125 102.686 397.125 101.087C397.125 99.4886 397.634 98.1951 398.651 97.1487C399.669 96.1023 401.006 95.5791 402.619 95.5791C404.145 95.5791 405.409 96.1314 406.369 97.2214C407.357 98.2968 407.836 99.5903 407.836 101.131C407.836 101.407 407.822 101.683 407.778 101.945H398.986L399 101.916ZM399 100.332H406.005C405.685 98.3404 404.305 97.294 402.633 97.294C400.686 97.294 399.32 98.4858 399 100.332Z" fill="#4A5B42"/>

</g>

<defs>

<clipPath id="clip0_739_3873">

<rect width="408" height="131.862" fill="white"/>

</clipPath>

</defs>

</svg>

